<?xml version="1.0" encoding="UTF-8" standalone="no"?>
<!-- Uploaded to: SVG Repo, www.svgrepo.com, Generator: SVG Repo Mixer Tools -->

<svg
   fill="#000000"
   width="800px"
   height="800px"
   viewBox="0 0 32 32"
   version="1.1"
   id="svg1"
   sodipodi:docname="esquive.svg"
   inkscape:version="1.3 (0e150ed6c4, 2023-07-21)"
   xmlns:inkscape="http://www.inkscape.org/namespaces/inkscape"
   xmlns:sodipodi="http://sodipodi.sourceforge.net/DTD/sodipodi-0.dtd"
   xmlns="http://www.w3.org/2000/svg"
   xmlns:svg="http://www.w3.org/2000/svg">
  <defs
     id="defs1" />
  <sodipodi:namedview
     id="namedview1"
     pagecolor="#505050"
     bordercolor="#ffffff"
     borderopacity="1"
     inkscape:showpageshadow="0"
     inkscape:pageopacity="0"
     inkscape:pagecheckerboard="1"
     inkscape:deskcolor="#505050"
     inkscape:zoom="0.68677746"
     inkscape:cx="455.75171"
     inkscape:cy="335.62546"
     inkscape:window-width="1920"
     inkscape:window-height="991"
     inkscape:window-x="-9"
     inkscape:window-y="-9"
     inkscape:window-maximized="1"
     inkscape:current-layer="svg1" />
  <title
     id="title1">player-dodge</title>
  <path
     d="M27.026 8.969c0.743-0.896 1.226-2.154 1.226-3.562 0-2.543-1.512-4.65-3.448-4.902-0.129-0.020-0.267 0-0.399 0-0.791 0-1.527 0.305-2.139 0.827l-21.218 1.536 19.521 1.414v0.744c-0.004 0.068-0.007 0.136-0.009 0.205l-19.512 1.413 19.515 1.413v0.949l-19.515 1.413 17.355 1.257v0.262c-0.127 0.324-0.237 0.667-0.333 1.023l-17.023 1.233 16.231 1.175v1.219l-16.231 1.175 16.26 1.177v1.42l-16.26 1.177 18.883 1.367v1.040l-18.883 1.367 19.358 1.402v0.971l-19.358 1.401 19.633 1.422 0.047 0.72h7.096l0.741-9.947h2.793c0-4.765-0.305-11.554-4.332-12.312zM21.202 8.102c0.001 0.002 0.002 0.005 0.004 0.007l-0.064-0.011 0.061 0.004z"
     id="path1"
     style="fill:#ffffff;fill-opacity:1;stroke:#000000;stroke-opacity:1;stroke-width:0.8;stroke-dasharray:none" />
</svg>
